<mxfile host="app.diagrams.net" modified="2024-06-18T15:04:06.304Z" agent="Mozilla/5.0 (Windows NT 10.0; Win64; x64) AppleWebKit/537.36 (KHTML, like Gecko) Chrome/127.0.0.0 Safari/537.36 Edg/127.0.0.0" version="24.5.5" etag="Kukl8JFPwJgyCSXpOB2i" type="github">
  <diagram name="Page-1" id="paN0a8RWSshc_nDi5syD">
    <mxGraphModel>
      <root>
        <mxCell id="0" />
        <mxCell id="1" parent="0" />
      </root>
    </mxGraphModel>
  </diagram>
</mxfile>
